<?xml version="1.0" encoding="utf-8"?><svg xmlns="http://www.w3.org/2000/svg" xmlns:xlink="http://www.w3.org/1999/xlink"><symbol viewBox="0 0 39 39" id="arrow" xmlns="http://www.w3.org/2000/svg"><path d="M12.738 32.799c.531.55 1.415.55 1.965 0a1.387 1.387 0 0 0 0-1.946l-9.966-9.966h32.887A1.37 1.37 0 0 0 39 19.51c0-.767-.61-1.396-1.376-1.396H4.737l9.966-9.948c.532-.55.532-1.435 0-1.965a1.377 1.377 0 0 0-1.965 0L.412 18.526a1.354 1.354 0 0 0 0 1.946L12.738 32.8z"/><defs><clipPath id="aclip0"><path transform="rotate(180 19.5 19.5)" d="M0 0h39v39H0z"/></clipPath></defs></symbol></svg>