<svg width="39" height="39" viewBox="0 0 39 39" fill="none" xmlns="http://www.w3.org/2000/svg">
<g clip-path="url(#clip0)">
<path d="M12.7379 32.7988C13.2692 33.3487 14.1534 33.3487 14.7033 32.7988C15.2346 32.2675 15.2346 31.3832 14.7033 30.8531L4.73722 20.887L37.624 20.887C38.3907 20.8857 39 20.2764 39 19.5098C39 18.7432 38.3907 18.114 37.624 18.114L4.73722 18.114L14.7033 8.16647C15.2346 7.61658 15.2346 6.73106 14.7033 6.20099C14.1534 5.6511 13.2679 5.6511 12.7379 6.20099L0.412419 18.5264C-0.13747 19.0577 -0.13747 19.942 0.412419 20.4721L12.7379 32.7988Z" fill="#158AEE"/>
</g>
<defs>
<clipPath id="clip0">
<rect width="39" height="39" fill="white" transform="translate(39 39) rotate(180)"/>
</clipPath>
</defs>
</svg>
